<mxfile host="app.diagrams.net" modified="2021-08-14T09:19:34.350Z" agent="5.0 (Windows NT 10.0; Win64; x64) AppleWebKit/537.36 (KHTML, like Gecko) Chrome/90.0.4430.212 Safari/537.36 Edg/90.0.818.66" etag="QcnYHoUSmbvOWl19JExs" version="14.9.6" type="github">
  <diagram id="YjPxxtpW6_lVK6SzBWF6" name="Page-1">
    <mxGraphModel dx="1246" dy="459" grid="1" gridSize="10" guides="1" tooltips="1" connect="1" arrows="1" fold="1" page="1" pageScale="1" pageWidth="827" pageHeight="1169" background="none" math="0" shadow="1">
      <root>
        <mxCell id="0" />
        <mxCell id="1" parent="0" />
        <mxCell id="ftMoWshzb8mJ0yyg1Dw8-1" value="mach1" style="rounded=0;whiteSpace=wrap;html=1;" vertex="1" parent="1">
          <mxGeometry x="110" y="440" width="60" height="30" as="geometry" />
        </mxCell>
        <mxCell id="ftMoWshzb8mJ0yyg1Dw8-5" value="mach2" style="rounded=0;whiteSpace=wrap;html=1;" vertex="1" parent="1">
          <mxGeometry x="260" y="440" width="60" height="30" as="geometry" />
        </mxCell>
        <mxCell id="ftMoWshzb8mJ0yyg1Dw8-6" value="mach3" style="rounded=0;whiteSpace=wrap;html=1;" vertex="1" parent="1">
          <mxGeometry x="413.5" y="440" width="60" height="30" as="geometry" />
        </mxCell>
        <mxCell id="ftMoWshzb8mJ0yyg1Dw8-7" value="mach4" style="rounded=0;whiteSpace=wrap;html=1;" vertex="1" parent="1">
          <mxGeometry x="560" y="440" width="60" height="30" as="geometry" />
        </mxCell>
        <mxCell id="ftMoWshzb8mJ0yyg1Dw8-8" value="疫苗1_0_" style="ellipse;whiteSpace=wrap;html=1;aspect=fixed;" vertex="1" parent="1">
          <mxGeometry x="50" y="505" width="45" height="45" as="geometry" />
        </mxCell>
        <mxCell id="ftMoWshzb8mJ0yyg1Dw8-9" value="疫苗1_1_" style="ellipse;whiteSpace=wrap;html=1;aspect=fixed;" vertex="1" parent="1">
          <mxGeometry x="200" y="505" width="45" height="45" as="geometry" />
        </mxCell>
        <mxCell id="ftMoWshzb8mJ0yyg1Dw8-10" value="疫苗1_2_" style="ellipse;whiteSpace=wrap;html=1;aspect=fixed;" vertex="1" parent="1">
          <mxGeometry x="360" y="510" width="35" height="35" as="geometry" />
        </mxCell>
        <mxCell id="ftMoWshzb8mJ0yyg1Dw8-11" value="疫苗1_3_" style="ellipse;whiteSpace=wrap;html=1;aspect=fixed;" vertex="1" parent="1">
          <mxGeometry x="500" y="510" width="45" height="45" as="geometry" />
        </mxCell>
        <mxCell id="ftMoWshzb8mJ0yyg1Dw8-12" value="疫苗1_4_" style="ellipse;whiteSpace=wrap;html=1;aspect=fixed;" vertex="1" parent="1">
          <mxGeometry x="660" y="505" width="45" height="45" as="geometry" />
        </mxCell>
        <mxCell id="ftMoWshzb8mJ0yyg1Dw8-13" value="" style="shape=flexArrow;endArrow=classic;html=1;" edge="1" parent="1">
          <mxGeometry width="50" height="50" relative="1" as="geometry">
            <mxPoint x="105" y="527" as="sourcePoint" />
            <mxPoint x="190" y="527" as="targetPoint" />
            <Array as="points">
              <mxPoint x="135" y="527" />
            </Array>
          </mxGeometry>
        </mxCell>
        <mxCell id="ftMoWshzb8mJ0yyg1Dw8-14" value="" style="shape=flexArrow;endArrow=classic;html=1;" edge="1" parent="1">
          <mxGeometry width="50" height="50" relative="1" as="geometry">
            <mxPoint x="255" y="527" as="sourcePoint" />
            <mxPoint x="340" y="527" as="targetPoint" />
            <Array as="points">
              <mxPoint x="285" y="527" />
            </Array>
          </mxGeometry>
        </mxCell>
        <mxCell id="ftMoWshzb8mJ0yyg1Dw8-15" value="" style="shape=flexArrow;endArrow=classic;html=1;" edge="1" parent="1">
          <mxGeometry width="50" height="50" relative="1" as="geometry">
            <mxPoint x="410" y="527" as="sourcePoint" />
            <mxPoint x="495" y="527" as="targetPoint" />
            <Array as="points">
              <mxPoint x="440" y="527" />
            </Array>
          </mxGeometry>
        </mxCell>
        <mxCell id="ftMoWshzb8mJ0yyg1Dw8-16" value="" style="shape=flexArrow;endArrow=classic;html=1;" edge="1" parent="1">
          <mxGeometry width="50" height="50" relative="1" as="geometry">
            <mxPoint x="555" y="527" as="sourcePoint" />
            <mxPoint x="640" y="527" as="targetPoint" />
            <Array as="points">
              <mxPoint x="585" y="527" />
            </Array>
          </mxGeometry>
        </mxCell>
        <mxCell id="ftMoWshzb8mJ0yyg1Dw8-17" value="疫苗1_0_" style="ellipse;whiteSpace=wrap;html=1;aspect=fixed;" vertex="1" parent="1">
          <mxGeometry x="50" y="610" width="45" height="45" as="geometry" />
        </mxCell>
        <mxCell id="ftMoWshzb8mJ0yyg1Dw8-18" value="疫苗1_1_" style="ellipse;whiteSpace=wrap;html=1;aspect=fixed;" vertex="1" parent="1">
          <mxGeometry x="200" y="610" width="45" height="45" as="geometry" />
        </mxCell>
        <mxCell id="ftMoWshzb8mJ0yyg1Dw8-19" value="疫苗1_2_" style="ellipse;whiteSpace=wrap;html=1;aspect=fixed;" vertex="1" parent="1">
          <mxGeometry x="360" y="615" width="35" height="35" as="geometry" />
        </mxCell>
        <mxCell id="ftMoWshzb8mJ0yyg1Dw8-20" value="疫苗1_3_" style="ellipse;whiteSpace=wrap;html=1;aspect=fixed;" vertex="1" parent="1">
          <mxGeometry x="500" y="615" width="45" height="45" as="geometry" />
        </mxCell>
        <mxCell id="ftMoWshzb8mJ0yyg1Dw8-21" value="疫苗1_4_" style="ellipse;whiteSpace=wrap;html=1;aspect=fixed;" vertex="1" parent="1">
          <mxGeometry x="660" y="610" width="45" height="45" as="geometry" />
        </mxCell>
        <mxCell id="ftMoWshzb8mJ0yyg1Dw8-22" value="" style="shape=flexArrow;endArrow=classic;html=1;" edge="1" parent="1">
          <mxGeometry width="50" height="50" relative="1" as="geometry">
            <mxPoint x="105" y="632" as="sourcePoint" />
            <mxPoint x="190" y="632" as="targetPoint" />
            <Array as="points">
              <mxPoint x="135" y="632" />
            </Array>
          </mxGeometry>
        </mxCell>
        <mxCell id="ftMoWshzb8mJ0yyg1Dw8-23" value="" style="shape=flexArrow;endArrow=classic;html=1;" edge="1" parent="1">
          <mxGeometry width="50" height="50" relative="1" as="geometry">
            <mxPoint x="255" y="632" as="sourcePoint" />
            <mxPoint x="340" y="632" as="targetPoint" />
            <Array as="points">
              <mxPoint x="285" y="632" />
            </Array>
          </mxGeometry>
        </mxCell>
        <mxCell id="ftMoWshzb8mJ0yyg1Dw8-24" value="" style="shape=flexArrow;endArrow=classic;html=1;" edge="1" parent="1">
          <mxGeometry width="50" height="50" relative="1" as="geometry">
            <mxPoint x="410" y="632" as="sourcePoint" />
            <mxPoint x="495" y="632" as="targetPoint" />
            <Array as="points">
              <mxPoint x="440" y="632" />
            </Array>
          </mxGeometry>
        </mxCell>
        <mxCell id="ftMoWshzb8mJ0yyg1Dw8-25" value="" style="shape=flexArrow;endArrow=classic;html=1;" edge="1" parent="1">
          <mxGeometry width="50" height="50" relative="1" as="geometry">
            <mxPoint x="555" y="632" as="sourcePoint" />
            <mxPoint x="640" y="632" as="targetPoint" />
            <Array as="points">
              <mxPoint x="585" y="632" />
            </Array>
          </mxGeometry>
        </mxCell>
        <mxCell id="ftMoWshzb8mJ0yyg1Dw8-27" value="" style="endArrow=none;dashed=1;html=1;dashPattern=1 3;strokeWidth=2;" edge="1" parent="1">
          <mxGeometry width="50" height="50" relative="1" as="geometry">
            <mxPoint x="72" y="740" as="sourcePoint" />
            <mxPoint x="72" y="680" as="targetPoint" />
          </mxGeometry>
        </mxCell>
        <mxCell id="ftMoWshzb8mJ0yyg1Dw8-28" value="" style="endArrow=none;dashed=1;html=1;dashPattern=1 3;strokeWidth=2;" edge="1" parent="1">
          <mxGeometry width="50" height="50" relative="1" as="geometry">
            <mxPoint x="120" y="740" as="sourcePoint" />
            <mxPoint x="120" y="680" as="targetPoint" />
          </mxGeometry>
        </mxCell>
        <mxCell id="ftMoWshzb8mJ0yyg1Dw8-29" value="&lt;br&gt;&lt;table border=&quot;0&quot; cellpadding=&quot;0&quot; cellspacing=&quot;0&quot; width=&quot;69&quot; style=&quot;border-collapse: collapse ; width: 52pt&quot;&gt; &lt;colgroup&gt;&lt;col width=&quot;69&quot; style=&quot;width: 52pt&quot;&gt;&lt;/colgroup&gt; &lt;tbody&gt;&lt;tr style=&quot;height: 15.5pt&quot;&gt;  &lt;td height=&quot;21&quot; class=&quot;xl63&quot; width=&quot;69&quot; style=&quot;height: 15.5pt ; width: 52pt&quot;&gt;t(1,1)=13.28404&lt;/td&gt; &lt;/tr&gt; &lt;tr style=&quot;height: 15.5pt&quot;&gt;  &lt;td height=&quot;21&quot; class=&quot;xl63&quot; width=&quot;69&quot; style=&quot;height: 15.5pt ; border-top: none ; width: 52pt&quot;&gt;&lt;/td&gt;&lt;/tr&gt;&lt;tr style=&quot;height: 15.5pt&quot;&gt;&lt;td height=&quot;21&quot; class=&quot;xl63&quot; width=&quot;69&quot; style=&quot;height: 15.5pt ; border-top: none ; width: 52pt&quot;&gt;&lt;/td&gt;&lt;/tr&gt;&lt;tr style=&quot;height: 15.5pt&quot;&gt;&lt;td height=&quot;21&quot; class=&quot;xl63&quot; width=&quot;69&quot; style=&quot;height: 15.5pt ; border-top: none ; width: 52pt&quot;&gt;&lt;br&gt;&lt;/td&gt; &lt;/tr&gt;&lt;/tbody&gt;&lt;/table&gt;" style="text;whiteSpace=wrap;html=1;" vertex="1" parent="1">
          <mxGeometry x="110" y="520" width="90" height="50" as="geometry" />
        </mxCell>
        <mxCell id="ftMoWshzb8mJ0yyg1Dw8-30" value="&lt;table border=&quot;0&quot; cellpadding=&quot;0&quot; cellspacing=&quot;0&quot; width=&quot;69&quot; style=&quot;color: rgb(0 , 0 , 0) ; font-family: &amp;#34;helvetica&amp;#34; ; font-size: 12px ; font-style: normal ; font-weight: 400 ; letter-spacing: normal ; text-align: left ; text-transform: none ; word-spacing: 0px ; background-color: rgb(248 , 249 , 250) ; border-collapse: collapse ; width: 52pt&quot;&gt;&lt;tbody&gt;&lt;tr style=&quot;height: 15.5pt&quot;&gt;&lt;td height=&quot;21&quot; class=&quot;xl63&quot; width=&quot;69&quot; style=&quot;height: 15.5pt ; border-top: none ; width: 52pt&quot;&gt;&lt;span style=&quot;font-family: &amp;#34;helvetica&amp;#34;&quot;&gt;t(1,2)=&lt;/span&gt;14.96213&lt;/td&gt;&lt;/tr&gt;&lt;tr style=&quot;height: 15.5pt&quot;&gt;&lt;/tr&gt;&lt;/tbody&gt;&lt;/table&gt;" style="text;whiteSpace=wrap;html=1;" vertex="1" parent="1">
          <mxGeometry x="260" y="540" width="90" height="70" as="geometry" />
        </mxCell>
        <mxCell id="ftMoWshzb8mJ0yyg1Dw8-31" value="&lt;table border=&quot;0&quot; cellpadding=&quot;0&quot; cellspacing=&quot;0&quot; width=&quot;69&quot; style=&quot;color: rgb(0 , 0 , 0) ; font-family: &amp;#34;helvetica&amp;#34; ; font-size: 12px ; font-style: normal ; font-weight: 400 ; letter-spacing: normal ; text-align: left ; text-transform: none ; word-spacing: 0px ; background-color: rgb(248 , 249 , 250) ; border-collapse: collapse ; width: 52pt&quot;&gt;&lt;tbody&gt;&lt;tr style=&quot;height: 15.5pt&quot;&gt;&lt;td height=&quot;21&quot; class=&quot;xl63&quot; width=&quot;69&quot; style=&quot;height: 15.5pt ; border-top: none ; width: 52pt&quot;&gt;&lt;span style=&quot;font-family: &amp;#34;helvetica&amp;#34;&quot;&gt;t(1,3)=&lt;/span&gt;19.84602&lt;/td&gt;&lt;/tr&gt;&lt;tr style=&quot;height: 15.5pt&quot;&gt;&lt;/tr&gt;&lt;/tbody&gt;&lt;/table&gt;" style="text;whiteSpace=wrap;html=1;" vertex="1" parent="1">
          <mxGeometry x="414" y="540" width="90" height="70" as="geometry" />
        </mxCell>
        <mxCell id="ftMoWshzb8mJ0yyg1Dw8-32" value="&lt;span style=&quot;color: rgb(0 , 0 , 0) ; font-family: &amp;#34;helvetica&amp;#34; ; font-size: 12px ; font-style: normal ; font-weight: 400 ; letter-spacing: normal ; text-align: left ; text-indent: 0px ; text-transform: none ; word-spacing: 0px ; background-color: rgb(248 , 249 , 250) ; display: inline ; float: none&quot;&gt;&lt;span style=&quot;font-family: &amp;#34;helvetica&amp;#34;&quot;&gt;t(1,4)=&lt;/span&gt;20.01292&lt;/span&gt;" style="text;whiteSpace=wrap;html=1;" vertex="1" parent="1">
          <mxGeometry x="560" y="545" width="80" height="30" as="geometry" />
        </mxCell>
        <mxCell id="ftMoWshzb8mJ0yyg1Dw8-34" value="&lt;span style=&quot;color: rgb(0 , 0 , 0) ; font-family: &amp;#34;helvetica&amp;#34; ; font-size: 12px ; font-style: normal ; font-weight: 400 ; letter-spacing: normal ; text-align: left ; text-indent: 0px ; text-transform: none ; word-spacing: 0px ; background-color: rgb(248 , 249 , 250) ; display: inline ; float: none&quot;&gt;t(2,1)&lt;/span&gt;" style="text;whiteSpace=wrap;html=1;" vertex="1" parent="1">
          <mxGeometry x="110" y="640" width="60" height="30" as="geometry" />
        </mxCell>
        <mxCell id="ftMoWshzb8mJ0yyg1Dw8-35" value="&lt;span style=&quot;color: rgb(0 , 0 , 0) ; font-family: &amp;#34;helvetica&amp;#34; ; font-size: 12px ; font-style: normal ; font-weight: 400 ; letter-spacing: normal ; text-align: left ; text-indent: 0px ; text-transform: none ; word-spacing: 0px ; background-color: rgb(248 , 249 , 250) ; display: inline ; float: none&quot;&gt;t(2,2)&lt;span style=&quot;white-space: pre&quot;&gt;	&lt;/span&gt;&lt;/span&gt;" style="text;whiteSpace=wrap;html=1;" vertex="1" parent="1">
          <mxGeometry x="260" y="640" width="60" height="30" as="geometry" />
        </mxCell>
        <mxCell id="ftMoWshzb8mJ0yyg1Dw8-36" value="&lt;span style=&quot;color: rgb(0 , 0 , 0) ; font-family: &amp;#34;helvetica&amp;#34; ; font-size: 12px ; font-style: normal ; font-weight: 400 ; letter-spacing: normal ; text-align: left ; text-indent: 0px ; text-transform: none ; word-spacing: 0px ; background-color: rgb(248 , 249 , 250) ; display: inline ; float: none&quot;&gt;t(2,3)&lt;/span&gt;" style="text;whiteSpace=wrap;html=1;" vertex="1" parent="1">
          <mxGeometry x="414" y="640" width="60" height="30" as="geometry" />
        </mxCell>
        <mxCell id="ftMoWshzb8mJ0yyg1Dw8-37" value="&lt;span style=&quot;color: rgb(0 , 0 , 0) ; font-family: &amp;#34;helvetica&amp;#34; ; font-size: 12px ; font-style: normal ; font-weight: 400 ; letter-spacing: normal ; text-align: left ; text-indent: 0px ; text-transform: none ; word-spacing: 0px ; background-color: rgb(248 , 249 , 250) ; display: inline ; float: none&quot;&gt;t(2,4)&lt;/span&gt;" style="text;whiteSpace=wrap;html=1;" vertex="1" parent="1">
          <mxGeometry x="560" y="640" width="60" height="30" as="geometry" />
        </mxCell>
      </root>
    </mxGraphModel>
  </diagram>
</mxfile>
